<?xml version="1.0" encoding="UTF-8" standalone="no"?>
<!-- Created with Inkscape (http://www.inkscape.org/) -->

<svg
   xmlns:dc="http://purl.org/dc/elements/1.1/"
   xmlns:cc="http://creativecommons.org/ns#"
   xmlns:rdf="http://www.w3.org/1999/02/22-rdf-syntax-ns#"
   xmlns:svg="http://www.w3.org/2000/svg"
   xmlns="http://www.w3.org/2000/svg"
   xmlns:xlink="http://www.w3.org/1999/xlink"
   xmlns:sodipodi="http://sodipodi.sourceforge.net/DTD/sodipodi-0.dtd"
   xmlns:inkscape="http://www.inkscape.org/namespaces/inkscape"
   width="181.88246mm"
   height="43.441498mm"
   viewBox="0 0 181.88247 43.441499"
   version="1.1"
   id="svg1769"
   sodipodi:docname="logoFullDark.svg"
   inkscape:version="0.92.3 (2405546, 2018-03-11)">
  <defs
     id="defs1763">
    <clipPath
       id="clipPath1665"
       clipPathUnits="userSpaceOnUse">
      <g
         inkscape:label="Clip"
         id="use1667">
        <path
           sodipodi:nodetypes="ccccccccccccccccccc"
           inkscape:connector-curvature="0"
           id="path2521"
           d="m 101.93028,105.81121 c 0.01,-6.149188 -0.002,-12.087598 0.014,-13.202358 l -0.0515,-2.03646 0.64212,0.004 c 1.16905,0.002 4.84934,0.0757 5.54507,0.11183 2.02947,0.10524 3.20555,0.28438 6.02245,0.91872 1.21847,0.27445 1.70965,0.40181 3.5445,0.91971 3.44586,0.97261 4.01494,1.25831 4.72806,2.37364 l 0.22099,0.34563 0.0529,0.9807 c 0.11003,2.04074 0.014,3.02872 -0.74284,7.553708 -0.1959,1.17266 -0.36959,2.21619 -0.38603,2.31893 -0.0629,0.39263 -0.76577,2.48397 -1.11427,3.3149 -1.05195,2.50804 -2.33648,3.47795 -7.39761,5.58569 -0.44485,0.18531 -1.73314,0.70886 -2.86285,1.16351 l -2.29845,0.50083 -2.84414,0.32581 h -3.08855 z"
           style="fill:#e6ecf2;fill-opacity:1;stroke-width:0.04216091" />
        <path
           sodipodi:nodetypes="ccccccccccccccccccc"
           inkscape:connector-curvature="0"
           id="path2523"
           d="m 102.40422,105.79981 c -0.01,-6.145768 -0.0285,-12.085668 -0.0439,-13.199778 l -0.0277,-2.02572 -0.50951,5.2e-4 c -1.12474,0.002 -4.665532,0.0757 -5.334875,0.11182 -1.952574,0.10504 -3.084062,0.2842 -5.794159,0.91818 -1.172305,0.27431 -1.644853,0.4016 -3.410159,0.91922 -3.315263,0.97207 -3.862774,1.25759 -4.548851,2.3723 l -0.212609,0.34544 -0.05092,0.98014 c -0.105836,2.0396 -0.01198,3.02703 0.714713,7.549488 0.188508,1.172 0.355569,2.21494 0.371384,2.31762 0.06031,0.39244 0.736739,2.4826 1.072041,3.31307 1.012072,2.50662 2.247915,3.47599 7.117211,5.58255 0.427977,0.18511 1.667414,0.70846 2.75431,1.16288 l 2.211351,0.50052 2.736304,0.32566 h 2.971489 z"
           style="fill:#e6ecf2;fill-opacity:1;stroke-width:0.04134257" />
      </g>
    </clipPath>
    <clipPath
       id="clipPath1665-5"
       clipPathUnits="userSpaceOnUse">
      <g
         style="fill:#ffffff;fill-opacity:1"
         inkscape:label="Clip"
         id="use1667-7">
        <path
           sodipodi:nodetypes="ccccccccccccccccccc"
           inkscape:connector-curvature="0"
           id="path6375"
           d="m 101.93028,105.81121 c 0.01,-6.149188 -0.002,-12.087598 0.014,-13.202358 l -0.0515,-2.03646 0.64212,0.004 c 1.16905,0.002 4.84934,0.0757 5.54507,0.11183 2.02947,0.10524 3.20555,0.28438 6.02245,0.91872 1.21847,0.27445 1.70965,0.40181 3.5445,0.91971 3.44586,0.97261 4.01494,1.25831 4.72806,2.37364 l 0.22099,0.34563 0.0529,0.9807 c 0.11003,2.04074 0.014,3.02872 -0.74284,7.553708 -0.1959,1.17266 -0.36959,2.21619 -0.38603,2.31893 -0.0629,0.39263 -0.76577,2.48397 -1.11427,3.3149 -1.05195,2.50804 -2.33648,3.47795 -7.39761,5.58569 -0.44485,0.18531 -1.73314,0.70886 -2.86285,1.16351 l -2.29845,0.50083 -2.84414,0.32581 h -3.08855 z"
           style="fill:#ffffff;fill-opacity:1;stroke-width:0.04216091" />
        <path
           sodipodi:nodetypes="ccccccccccccccccccc"
           inkscape:connector-curvature="0"
           id="path6377"
           d="m 102.40422,105.79981 c -0.01,-6.145768 -0.0285,-12.085668 -0.0439,-13.199778 l -0.0277,-2.02572 -0.50951,5.2e-4 c -1.12474,0.002 -4.665532,0.0757 -5.334875,0.11182 -1.952574,0.10504 -3.084062,0.2842 -5.794159,0.91818 -1.172305,0.27431 -1.644853,0.4016 -3.410159,0.91922 -3.315263,0.97207 -3.862774,1.25759 -4.548851,2.3723 l -0.212609,0.34544 -0.05092,0.98014 c -0.105836,2.0396 -0.01198,3.02703 0.714713,7.549488 0.188508,1.172 0.355569,2.21494 0.371384,2.31762 0.06031,0.39244 0.736739,2.4826 1.072041,3.31307 1.012072,2.50662 2.247915,3.47599 7.117211,5.58255 0.427977,0.18511 1.667414,0.70846 2.75431,1.16288 l 2.211351,0.50052 2.736304,0.32566 h 2.971489 z"
           style="fill:#ffffff;fill-opacity:1;stroke-width:0.04134257" />
      </g>
    </clipPath>
    <clipPath
       id="clipPath1665-1"
       clipPathUnits="userSpaceOnUse">
      <use
         height="100%"
         width="100%"
         id="use1667-72"
         xlink:href="#g1661"
         y="0"
         x="0" />
    </clipPath>
  </defs>
  <sodipodi:namedview
     id="base"
     pagecolor="#ffffff"
     bordercolor="#666666"
     borderopacity="1.0"
     inkscape:pageopacity="0"
     inkscape:pageshadow="2"
     inkscape:zoom="0.98994949"
     inkscape:cx="378.14209"
     inkscape:cy="13.405171"
     inkscape:document-units="mm"
     inkscape:current-layer="layer1-1"
     showgrid="false"
     fit-margin-top="0"
     fit-margin-left="0"
     fit-margin-right="0"
     fit-margin-bottom="0"
     inkscape:window-width="1853"
     inkscape:window-height="1025"
     inkscape:window-x="67"
     inkscape:window-y="27"
     inkscape:window-maximized="1"
     inkscape:pagecheckerboard="false" />
  <metadata
     id="metadata1766">
    <rdf:RDF>
      <cc:Work
         rdf:about="">
        <dc:format>image/svg+xml</dc:format>
        <dc:type
           rdf:resource="http://purl.org/dc/dcmitype/StillImage" />
        <dc:title></dc:title>
      </cc:Work>
    </rdf:RDF>
  </metadata>
  <g
     inkscape:label="Layer 1"
     inkscape:groupmode="layer"
     id="layer1"
     transform="translate(-11.113216,-120.31516)">
    <text
       xml:space="preserve"
       style="font-style:normal;font-weight:normal;font-size:10.58333302px;line-height:1.25;font-family:sans-serif;letter-spacing:0px;word-spacing:0px;fill:#000000;fill-opacity:1;stroke:none;stroke-width:0.26458332"
       x="272.52084"
       y="-16.342262"
       id="text2366"><tspan
         sodipodi:role="line"
         id="tspan2364"
         x="272.52084"
         y="-6.9784932"
         style="stroke-width:0.26458332" /></text>
    <flowRoot
       xml:space="preserve"
       id="flowRoot2428"
       style="font-style:normal;font-variant:normal;font-weight:normal;font-stretch:normal;font-size:40px;line-height:0;font-family:Samanata;-inkscape-font-specification:Samanata;letter-spacing:0px;word-spacing:0px;fill:#000000;fill-opacity:1;stroke:none"
       transform="scale(0.26458333)"><flowRegion
         id="flowRegion2430"><rect
           id="rect2432"
           width="597.14288"
           height="284.28571"
           x="74.285713"
           y="379.66254" /></flowRegion><flowPara
         id="flowPara2434"></flowPara></flowRoot>    <g
       transform="matrix(0.31325211,0,0,0.31325211,139.12432,112.19)"
       id="layer1-4-1"
       inkscape:label="Layer 1">
      <g
         transform="matrix(0.98119178,0,0,0.98119178,2.1536641,1.955643)"
         id="layer1-1"
         inkscape:label="Layer 1">
        <path
           sodipodi:nodetypes="cscccscsssscccc"
           inkscape:connector-curvature="0"
           id="path881-3-7"
           d="m 96.876706,143.25301 c -0.0022,-1.32582 3.536324,-21.17083 3.861234,-43.827878 0.32606,-22.73864 1.66195,-42.02659 1.68154,-42.04764 0.0519,-0.0559 6.70225,0.27342 9.47479,0.50394 2.88681,0.24001 6.23718,0.64849 7.6445,0.93201 3.14692,0.63398 8.58026,3.91046 10.9671,6.61354 1.02222,1.15764 3.19911,3.98328 5.12201,6.64849 1.71874,2.38221 4.15366,8.0827 5.19269,12.15666 0.58663,2.3002 0.72098,3.54479 1.65346,15.31743 0.50925,6.429338 1.54936,19.110138 2.31136,28.179608 0.762,9.06945 1.38547,16.63308 1.38547,16.80807 v 0.31815 h -21.19997 l -22.55425,-0.11682 z"
           style="fill:#293e52;fill-opacity:1;stroke-width:0.13208698" />
        <ellipse
           transform="matrix(-0.96825155,-0.24997786,-0.24997786,0.96825155,0,0)"
           ry="10.927752"
           rx="8.592762"
           cy="25.034191"
           cx="-142.25157"
           id="path968-9-9"
           style="fill:#293e52;fill-opacity:1;stroke-width:0.53609878" />
        <path
           sodipodi:nodetypes="ccccccccccccccccccc"
           inkscape:connector-curvature="0"
           id="path934-6-3-28"
           d="m 102.07002,97.505432 c 0.002,-1.5268 0.008,-3.00243 0.014,-3.27922 l 0.008,-0.50324 0.15156,1.8e-4 c 0.33455,4.4e-4 1.38771,0.018 1.58681,0.0277 0.58078,0.0262 0.91731,0.0707 1.72342,0.22809 0.34868,0.0681 0.48924,0.0999 1.01431,0.22835 0.98609,0.24152 1.14894,0.31245 1.35301,0.58936 l 0.0633,0.0859 0.016,0.24352 c 0.0315,0.50668 0.004,0.75198 -0.21257,1.87552 -0.0561,0.29113 -0.10584,0.55024 -0.11043,0.57576 -0.018,0.0975 -0.21914,0.61673 -0.31887,0.82307 -0.30103,0.62269 -0.66862,0.86352 -2.11696,1.38685 -0.1272,0.0459 -0.49595,0.17593 -0.81925,0.288848 l -0.65774,0.12441 -0.81388,0.0809 h -0.88381 z"
           style="fill:#1c2c3b;fill-opacity:1;stroke-width:0.01123822" />
        <path
           sodipodi:nodetypes="cscccscsssscccc"
           inkscape:connector-curvature="0"
           id="path881-3-1-9"
           d="m 102.44873,142.52432 c 0.002,-1.32582 0.0299,-21.23687 -0.29488,-43.893918 -0.32607,-22.73864 0.31934,-41.23408 0.29973,-41.25513 -0.0519,-0.0559 -6.702228,0.27342 -9.474771,0.50392 -2.886809,0.24003 -6.237179,0.6485 -7.644476,0.93202 -3.146944,0.63398 -8.580284,3.91048 -10.967125,6.61355 -1.022216,1.15765 -3.199103,3.98329 -5.122003,6.6485 -1.718736,2.3822 -4.153683,8.08269 -5.192693,12.15668 -0.586611,2.30017 -0.720963,3.54476 -1.653438,15.3174 -0.509251,6.429338 -1.549379,19.110148 -2.311378,28.179608 -0.761999,9.06947 -1.385453,16.63309 -1.385453,16.80808 v 0.31814 h 21.199948 l 22.554249,-0.11682 z"
           style="fill:#293e52;fill-opacity:1;stroke-width:0.13208698" />
        <g
           transform="matrix(1.2217699,0,0,1.2217699,-22.744947,-23.015546)"
           clip-path="url(#clipPath1665-1)"
           id="g1663"
           style="fill:#ffffff;fill-opacity:1">
          <g
             id="g1661"
             inkscape:label="Clip"
             style="fill:#ffffff;fill-opacity:1">
            <path
               style="fill:#ffffff;fill-opacity:1;stroke-width:0.04216091"
               d="m 101.93028,105.81121 c 0.01,-6.149188 -0.002,-12.087598 0.014,-13.202358 l -0.0515,-2.03646 0.64212,0.004 c 1.16905,0.002 4.84934,0.0757 5.54507,0.11183 2.02947,0.10524 3.20555,0.28438 6.02245,0.91872 1.21847,0.27445 1.70965,0.40181 3.5445,0.91971 3.44586,0.97261 4.01494,1.25831 4.72806,2.37364 l 0.22099,0.34563 0.0529,0.9807 c 0.11003,2.04074 0.014,3.02872 -0.74284,7.553708 -0.1959,1.17266 -0.36959,2.21619 -0.38603,2.31893 -0.0629,0.39263 -0.76577,2.48397 -1.11427,3.3149 -1.05195,2.50804 -2.33648,3.47795 -7.39761,5.58569 -0.44485,0.18531 -1.73314,0.70886 -2.86285,1.16351 l -2.29845,0.50083 -2.84414,0.32581 h -3.08855 z"
               id="path934-6-5"
               inkscape:connector-curvature="0"
               sodipodi:nodetypes="ccccccccccccccccccc" />
            <path
               style="fill:#ffffff;fill-opacity:1;stroke-width:0.0422437"
               d="m 103.28422,105.79981 c -0.0104,-6.145768 -0.0298,-12.085668 -0.0458,-13.199778 l -0.0289,-2.02572 -0.53196,5.2e-4 c -1.17431,0.002 -4.87114,0.0757 -5.56998,0.11182 -2.038621,0.10504 -3.219973,0.2842 -6.0495,0.91818 -1.223967,0.27431 -1.717339,0.4016 -3.56044,0.91922 -3.461362,0.97207 -4.033001,1.25759 -4.749312,2.3723 l -0.221979,0.34544 -0.05316,0.98014 c -0.1105,2.0396 -0.01251,3.02703 0.74621,7.549488 0.196815,1.172 0.371238,2.21494 0.38775,2.31762 0.06297,0.39244 0.769206,2.4826 1.119284,3.31307 1.056673,2.50662 2.346978,3.47599 7.430857,5.58255 0.446837,0.18511 1.740895,0.70846 2.875689,1.16288 l 2.308802,0.50052 2.856889,0.32566 h 3.10243 z"
               id="path934-6-8-7"
               inkscape:connector-curvature="0"
               sodipodi:nodetypes="ccccccccccccccccccc" />
          </g>
        </g>
        <ellipse
           transform="rotate(-14.476202)"
           ry="10.927752"
           rx="8.5927629"
           cy="76.245735"
           cx="56.117649"
           id="path968-9-7-3"
           style="fill:#293e52;fill-opacity:1;stroke-width:0.53609878" />
        <ellipse
           transform="scale(-1,1)"
           inkscape:transform-center-y="-4.1467147"
           inkscape:transform-center-x="-61.739585"
           ry="5.3907242"
           rx="6.5126133"
           cy="80.26046"
           cx="-92.963242"
           id="path985-1-9-6"
           style="fill:#e6ecf2;fill-opacity:1;stroke-width:0.52969897" />
        <path
           sodipodi:nodetypes="ccccccccccccccccccc"
           inkscape:connector-curvature="0"
           id="path934-6-3-2-1"
           d="m 102.07002,97.505432 c -0.004,-3.393343 -0.0178,-6.673003 -0.0267,-7.288179 l -0.0178,-1.118468 -0.32,4e-4 c -0.70637,9.78e-4 -2.93003,0.04001 -3.35043,0.06179 -1.22621,0.05823 -1.93682,0.157133 -3.638825,0.50696 -0.736243,0.151354 -1.033029,0.222031 -2.141645,0.507516 -2.082092,0.536764 -2.425918,0.694408 -2.85677,1.309895 l -0.133596,0.190915 -0.03107,0.54121 c -0.06656,1.126135 -0.0093,1.671323 0.448829,4.16834 0.118506,0.647135 0.223241,1.222994 0.233006,1.279669 0.03552,0.216697 0.462685,1.370725 0.673282,1.829276 0.635598,1.384024 1.411696,1.919254 4.469747,3.082374 0.268953,0.10201 1.047142,0.39101 1.729742,0.64204 l 1.38879,0.27648 1.71842,0.1798 h 1.86617 z"
           style="fill:#1c2c3b;fill-opacity:1;stroke-width:0.02434495" />
        <circle
           r="67.15863"
           style="fill:none;fill-opacity:1;stroke:#293e52;stroke-width:7.0200696;stroke-miterlimit:4;stroke-dasharray:none;stroke-opacity:1"
           cy="95.110832"
           cx="102.40739"
           id="path35-2" />
        <path
           sodipodi:nodetypes="ccscsssssssccccssssccssscsssscscscccscscccccssc"
           inkscape:connector-curvature="0"
           id="path851-9"
           d="m 56.602018,139.16149 c -2.599113,-2.79496 -3.277541,-3.59612 -5.101577,-6.02426 -5.339865,-7.10843 -9.239023,-15.6201 -11.167155,-24.37728 -1.104708,-5.01729 -1.30969,-7.10585 -1.320114,-13.449558 -0.008,-4.74647 0.05671,-6.3537 0.333783,-8.31258 2.046828,-14.47207 8.157898,-26.83458 18.237281,-36.89351 9.941314,-9.92115 22.366899,-16.03257 36.711829,-18.05642 3.775747,-0.53271 13.186765,-0.4795 16.905325,0.0956 11.28471,1.7452 20.93266,5.7608 29.54967,12.299 9.10371,6.90746 15.99874,15.8537 20.2834,26.14569 2.16008,5.18858 3.65672,10.71919 4.43845,16.50306 0.41441,3.06633 0.55981,9.59731 0.28845,12.958758 -0.94641,11.72439 -4.94416,22.66254 -11.75151,32.15326 -2.04958,2.85747 -5.84333,7.22832 -7.43136,8.56181 l -0.58176,0.48852 -0.12002,-1.34959 c -0.0659,-0.74227 -1.0019,-12.10921 -2.07985,-25.25987 -2.15476,-26.287328 -2.23808,-27.207758 -2.64562,-29.234078 -0.88449,-4.39751 -3.69336,-11.01719 -5.98807,-14.11205 l -1.10971,-1.49668 0.75129,-0.46149 c 3.13319,-1.92466 5.50274,-6.54749 5.53071,-10.79004 0.0248,-3.74308 -1.93951,-7.41219 -4.75687,-8.88591 -1.04911,-0.54879 -1.24623,-0.58627 -3.08218,-0.58627 -1.75628,0 -2.07786,0.0545 -3.07496,0.52143 -2.27316,1.06441 -4.07023,2.86177 -5.30056,5.30135 -0.63222,1.25358 -1.33805,3.575 -1.33805,4.40072 0,0.2846 -0.0276,0.51746 -0.0611,0.51746 -0.0338,0 -0.57527,-0.2089 -1.20358,-0.4642 -1.36664,-0.55532 -3.31228,-0.91219 -7.06323,-1.29558 -9.04838,-0.9248 -15.885663,-0.89856 -24.828845,0.0953 -3.681333,0.4091 -5.149779,0.69568 -6.474127,1.26346 -0.478579,0.20518 -0.919895,0.32332 -0.980701,0.26251 -0.0609,-0.0609 -0.111227,-0.36973 -0.112226,-0.68649 -0.004,-1.01303 -1.19383,-4.0931 -2.12295,-5.49072 -1.11611,-1.67887 -2.437323,-2.8486 -4.216865,-3.73343 -1.339904,-0.66623 -1.464091,-0.69179 -3.36237,-0.69179 -1.889392,0 -2.01989,0.0266 -3.148401,0.63837 -2.955081,1.60228 -4.599073,4.78922 -4.585115,8.88839 0.008,2.29402 0.397025,3.94736 1.426749,6.06083 0.855894,1.75669 2.640808,3.82229 3.98215,4.60836 l 0.792671,0.46454 -1.219969,1.71831 c -1.899437,2.67538 -4.036405,7.33524 -5.273488,11.49936 -0.66493,2.23831 -1.012272,4.49829 -1.410674,9.17906 -0.285458,3.35386 -4.023166,48.937158 -4.023166,49.064668 0,0.31215 -0.631621,-0.24858 -2.295602,-2.03797 z"
           style="fill:#e5ba4c;fill-opacity:1;stroke:#293e52;stroke-width:2.0227263;stroke-miterlimit:4;stroke-dasharray:none;stroke-opacity:1" />
        <path
           inkscape:connector-curvature="0"
           id="path853-31"
           d="m 97.658455,158.50941 c -12.195823,-1.03 -23.248174,-5.12206 -32.833859,-12.15648 l -1.717739,-1.26055 19.490797,-0.15156 c 10.719926,-0.0835 28.413076,-0.0835 39.318086,0 l 19.82732,0.15156 -2.102,1.49439 c -9.76567,6.94274 -20.10127,10.79495 -31.80204,11.85301 -1.963,0.17752 -8.383268,0.22142 -10.180565,0.0697 z"
           style="fill:#293e52;fill-opacity:1;stroke:#293e52;stroke-width:2.0227263;stroke-miterlimit:4;stroke-dasharray:none;stroke-opacity:1" />
        <path
           sodipodi:nodetypes="ccccccccccccccccccc"
           inkscape:connector-curvature="0"
           id="path934-6-3-2-1-6"
           d="m 100.31059,97.238155 c 0.004,-3.39334 1.15369,-6.305504 1.16259,-6.920684 l 0.55234,-1.218686 0.32,4e-4 c 0.70637,9.7e-4 2.93003,0.04 3.35043,0.0618 1.22621,0.0582 1.93682,0.15713 3.63883,0.50696 0.73624,0.15135 1.03303,0.22203 2.14165,0.50751 2.08209,0.53677 2.42591,0.69441 2.85677,1.3099 l 0.13359,0.19091 0.0311,0.54121 c 0.0666,1.12614 0.009,1.67132 -0.44883,4.16834 -0.1185,0.64714 -0.22324,1.223 -0.233,1.27967 -0.0355,0.2167 -0.46269,1.37073 -0.67329,1.82928 -0.63559,1.384015 -1.41169,1.919245 -4.46974,3.082365 -0.26896,0.10201 -1.04715,0.39101 -1.72975,0.64204 l -1.38879,0.27648 -1.71842,0.1798 h -1.86617 z"
           style="fill:#1c2c3b;fill-opacity:1;stroke-width:0.02434495" />
        <ellipse
           transform="scale(-1,1)"
           inkscape:transform-center-y="-4.1467147"
           inkscape:transform-center-x="-61.739585"
           ry="5.3907247"
           rx="6.5126133"
           cy="80.32515"
           cx="-110.936"
           id="path985-1-9-6-1"
           style="fill:#e6ecf2;fill-opacity:1;stroke-width:0.52969897" />
      </g>
    </g>
    <text
       xml:space="preserve"
       style="font-style:normal;font-variant:normal;font-weight:normal;font-stretch:normal;font-size:18.4519825px;line-height:1.25;font-family:KacstDecorative;-inkscape-font-specification:KacstDecorative;letter-spacing:0px;word-spacing:0px;fill:#293e52;fill-opacity:1;stroke:none;stroke-width:0.46129963"
       x="9.8956203"
       y="155.90033"
       id="text1819-1"
       transform="scale(1.0270404,0.97367153)"><tspan
         sodipodi:role="line"
         id="tspan1817-6"
         x="9.8956203"
         y="155.90033"
         style="font-style:normal;font-variant:normal;font-weight:normal;font-stretch:normal;font-size:34.44370651px;line-height:0;font-family:sans-serif;-inkscape-font-specification:sans-serif;letter-spacing:-2.89995503px;fill:#293e52;fill-opacity:1;stroke-width:0.46129963"
         rotate="0 0 0 0 0 0 0 0 0"><tspan
           style="fill:#e5ba4c;fill-opacity:1;stroke-width:0.46129963"
           id="tspan2414-8">ta</tspan><tspan
           style="letter-spacing:-2.89995503px;fill:#e5ba4c;fill-opacity:1;stroke-width:0.46129963"
           id="tspan2412-5">by</tspan><tspan
           style="fill:#ffffff;fill-opacity:1"
           id="tspan6495">bear</tspan></tspan></text>
  </g>
</svg>
